<?xml version="1.0" encoding="utf-8"?>
<!-- Svg Vector Icons : http://www.onlinewebfonts.com/icon -->
<!DOCTYPE svg PUBLIC "-//W3C//DTD SVG 1.1//EN" "http://www.w3.org/Graphics/SVG/1.1/DTD/svg11.dtd">
<svg version="1.1" xmlns="http://www.w3.org/2000/svg" xmlns:xlink="http://www.w3.org/1999/xlink" x="0px" y="0px" viewBox="0 0 1000 1000" enable-background="new 0 0 1000 1000" xml:space="preserve">
<metadata> Svg Vector Icons : http://www.onlinewebfonts.com/icon </metadata>
<g><path fill="#52331B" d="M913.4,841.9H117.2C66.4,841.9,10,784.6,10,733.1V235.9c0-51.5,56.4-77.7,107.2-77.7h796.2c50.8,0,76.6,26.2,76.6,77.7v497.2C990,784.6,964.2,841.9,913.4,841.9L913.4,841.9z M928.7,733.1V235.9c0-17.1,1.6-15.6-15.3-15.6h-15.3H117.2c-16.9,0-46-1.6-46,15.6v497.2c0,17.2,29.1,46.6,46,46.6h796.2C930.3,779.7,928.7,750.3,928.7,733.1L928.7,733.1z M979.4,246.7L520,619.6c-5.7,5-12.9,7.6-20,7.6c-7.2,0-14.3-2.5-20.1-7.6L20.6,246.7c-12.8-11.2-14.1-30.9-3.1-43.8c11.1-13,30.5-14.3,43.2-3.2L500,555l439.3-355.3c12.8-11.2,32.1-9.9,43.2,3.2C993.6,215.8,992.2,235.5,979.4,246.7L979.4,246.7z"/></g>
</svg>